HIERARCHY
ROOT RootJoint
{
    OFFSET   0.000000   0.000000   0.000000
    CHANNELS 6 Xposition Yposition Zposition Xrotation Yrotation Zrotation
    JOINT pelvis_lowerback
    {
        OFFSET   0.000000   0.093605   0.000000
        CHANNELS 3 Xrotation Yrotation Zrotation
        JOINT lowerback_torso
        {
            OFFSET   0.000000   0.100000   0.000000
            CHANNELS 3 Xrotation Yrotation Zrotation
            JOINT torso_head
            {
                OFFSET   0.000000   0.282350   0.000000
                CHANNELS 3 Xrotation Yrotation Zrotation
                End Site
                {
                    OFFSET   0.000000   0.192650   0.000000
                }
            }
            JOINT rTorso_Clavicle
            {
                OFFSET  -0.001000   0.157500   0.000000
                CHANNELS 3 Xrotation Yrotation Zrotation
                JOINT rShoulder
                {
                    OFFSET  -0.117647   0.000000   0.000000
                    CHANNELS 3 Xrotation Yrotation Zrotation
                    JOINT rElbow
                    {
                        OFFSET  -0.245000   0.000000   0.000000
                        CHANNELS 3 Xrotation Yrotation Zrotation
                        JOINT rWrist
                        {
                            OFFSET  -0.240000   0.000000   0.000000
                            CHANNELS 3 Xrotation Yrotation Zrotation
                            End Site
                            {
                                OFFSET  -0.116353  -0.002500   0.000000
                            }
                        }
                    }
                }
            }
            JOINT lTorso_Clavicle
            {
                OFFSET   0.001000   0.157500   0.000000
                CHANNELS 3 Xrotation Yrotation Zrotation
                JOINT lShoulder
                {
                    OFFSET   0.117647   0.000000   0.000000
                    CHANNELS 3 Xrotation Yrotation Zrotation
                    JOINT lElbow
                    {
                        OFFSET   0.245000   0.000000   0.000000
                        CHANNELS 3 Xrotation Yrotation Zrotation
                        JOINT lWrist
                        {
                            OFFSET   0.240000   0.000000   0.000000
                            CHANNELS 3 Xrotation Yrotation Zrotation
                            End Site
                            {
                                OFFSET   0.116353  -0.002500   0.000000
                            }
                        }
                    }
                }
            }
        }
    }
    JOINT rHip
    {
        OFFSET  -0.100000  -0.051395   0.000000
        CHANNELS 3 Xrotation Yrotation Zrotation
        JOINT rKnee
        {
            OFFSET   0.000000  -0.410000   0.000000
            CHANNELS 3 Xrotation Yrotation Zrotation
            JOINT rAnkle
            {
                OFFSET   0.000000  -0.390000   0.000000
                CHANNELS 3 Xrotation Yrotation Zrotation
                JOINT rToeJoint
                {
                    OFFSET   0.000000  -0.050000   0.130000
                    CHANNELS 3 Xrotation Yrotation Zrotation
                    End Site
                    {
                        OFFSET  -0.010000   0.002000   0.060000
                    }
                }
            }
        }
    }
    JOINT lHip
    {
        OFFSET   0.100000  -0.051395   0.000000
        CHANNELS 3 Xrotation Yrotation Zrotation
        JOINT lKnee
        {
            OFFSET   0.000000  -0.410000   0.000000
            CHANNELS 3 Xrotation Yrotation Zrotation
            JOINT lAnkle
            {
                OFFSET   0.000000  -0.390000   0.000000
                CHANNELS 3 Xrotation Yrotation Zrotation
                JOINT lToeJoint
                {
                    OFFSET   0.000000  -0.050000   0.130000
                    CHANNELS 3 Xrotation Yrotation Zrotation
                    End Site
                    {
                        OFFSET   0.010000   0.002000   0.060000
                    }
                }
            }
        }
    }
}
MOTION
Frames: 10
Frame Time:   0.008333
 -2.386125   0.905754   3.996722  12.414427  -1.533011   4.736522  10.661222  -1.057912  -0.487659   4.230838   1.178082   1.171844  -0.915470   0.274883  -0.651472   5.393745 -16.026800   2.556204  34.162174   4.159579  41.197170 -179.992902  78.924946 179.993145  -6.614600   8.987429   7.918767   7.082901  12.703787   0.404296  43.809182 -10.825259 -37.756265 179.999768 -79.407301 179.999830  -4.066881  -9.464245  -9.736201 -23.543291  -4.559779 -15.892583  18.870217   0.000103   0.000036  -6.666127  -6.168871   5.939637  -0.550993  -0.000619  -0.002203 -16.942053   6.807072  -0.810350  18.333654  -0.000515  -0.000224 -10.417578   8.667844   0.178908  -4.083447  -0.000121   0.001389
 -2.386596   0.905639   3.996340  12.444017  -1.566448   4.764418  10.749332  -0.982661  -0.557893   4.160447   1.209501   1.155509  -0.940660   0.229251  -0.614668   5.419399 -15.998917   2.514867  34.138687   4.187207  41.291285 -179.993934  79.033827 179.994180  -6.577420   8.954409   7.847297   7.089163  12.693020   0.501426  43.733432 -10.809706 -37.714786 -179.999921 -79.300076 -179.999832  -4.027884  -9.468317  -9.789150 -23.377243  -4.556488 -15.838521  18.477518   0.000227  -0.000070  -6.810741  -6.292101   5.928683  -0.119840  -0.000777  -0.002001 -17.069551   6.726552  -0.762617  18.471534  -0.000518  -0.000300 -10.415897   8.587691   0.142445  -4.132732  -0.000089   0.001197
 -2.387047   0.905522   3.995952  12.497413  -1.612484   4.782144  10.809465  -0.911257  -0.656051   4.073835   1.238044   1.132939  -0.970166   0.186829  -0.579417   5.454251 -15.984116   2.476125  34.126300   4.211116  41.386558 -179.995007  79.130236 179.995254  -6.544701   8.934232   7.807137   7.090826  12.692024   0.617295  43.660048 -10.783192 -37.669194 -179.999679 -79.191636 -179.999563  -3.989724  -9.474232  -9.796710 -23.212135  -4.554725 -15.768672  18.032325   0.000347  -0.000146  -6.935167  -6.403735   5.916878   0.274808  -0.000883  -0.001792 -17.201485   6.648408  -0.704286  18.573508  -0.000494  -0.000337 -10.427338   8.514785   0.106729  -4.140755  -0.000070   0.000971
 -2.387350   0.905802   3.995560  12.528634  -1.646892   4.712336  10.898794  -0.849549  -0.687168   3.994622   1.262462   1.128316  -1.000187   0.147033  -0.548015   5.480026 -15.962129   2.444763  34.109139   4.232335  41.470534 -179.995900  79.228052 179.996149  -6.509366   8.888161   7.742170   7.083047  12.679015   0.699483  43.581067 -10.770986 -37.633709 -179.999657 -79.092648 -179.999537  -3.952548  -9.480812  -9.784212 -23.129125  -4.506068 -15.636626  17.784790   0.000323  -0.000287  -6.731667  -6.471650   5.923980   0.626136  -0.000813  -0.001417 -17.318795   6.555058  -0.574396  18.654804  -0.000448  -0.000332 -10.393838   8.441816   0.083660  -3.939634  -0.000099   0.000467
 -2.387601   0.906110   3.995309  12.541612  -1.616373   4.654330  10.961158  -0.822351  -0.759876   3.926113   1.260560   1.122094  -1.024431   0.108987  -0.515404   5.516970 -15.958638   2.419121  34.103811   4.249915  41.558418 -179.996770  79.315151 179.997028  -6.477433   8.852732   7.709193   7.077013  12.666441   0.800383  43.510201 -10.752587 -37.590555 -179.999635 -78.997001 -179.999523  -3.917122  -9.487095  -9.771780 -23.010781  -4.498616 -15.541840  17.533449   0.000288  -0.000445  -6.558556  -6.561995   5.905123   0.540192  -0.000647  -0.001137 -17.417524   6.486983  -0.431716  18.730918  -0.000419  -0.000261 -10.354780   8.411360   0.079426  -3.562053  -0.000361   0.000220
 -2.387747   0.906404   3.995163  12.549351  -1.571254   4.607053  11.002462  -0.801493  -0.856743   3.855959   1.250205   1.099242  -1.048245   0.073547  -0.488024   5.558461 -15.965706   2.392050  34.104996   4.261427  41.642217 -179.997593  79.395148 179.997873  -6.447915   8.824823   7.688952   7.072744  12.657109   0.905716  43.446183 -10.729863 -37.545700 -179.999608 -78.907521 -179.999520  -3.883013  -9.493304  -9.755662 -22.882303  -4.500147 -15.471148  17.285247   0.000241  -0.000567  -6.403901  -6.654420   5.881027   0.474500  -0.000523  -0.000911 -17.505411   6.416122  -0.290853  18.803082  -0.000398  -0.000197 -10.318295   8.368286   0.069630  -3.210946  -0.000574   0.000029
 -2.387786   0.906671   3.995097  12.553959  -1.512273   4.565221  11.027851  -0.786828  -0.969089   3.782935   1.234551   1.062689  -1.072287   0.040423  -0.464905   5.600721 -15.978620   2.362947  34.109278   4.268126  41.720290 -179.998339  79.469390 179.998648  -6.419975   8.800528   7.669789   7.069102  12.649310   1.008861  43.387133 -10.706045 -37.501624 -179.999585 -78.824330 -179.999533  -3.850270  -9.499420  -9.735956 -22.749512  -4.510500 -15.419269  17.045296   0.000186  -0.000658  -6.266180  -6.748948   5.855924   0.424638  -0.000427  -0.000730 -17.587954   6.357262  -0.132480  18.871896  -0.000390  -0.000127 -10.284230   8.343957   0.066837  -2.891997  -0.000809   0.000018
 -2.387876   0.906950   3.995236  12.603795  -1.487393   4.447810  10.939242  -0.763215  -1.060961   3.733219   1.248573   1.031686  -1.094173   0.009414  -0.385038   5.635171 -16.010034   2.304839  34.169259   4.306732  41.855046 -179.999131  79.560117 179.999456  -6.425982   8.775263   7.640480   7.053159  12.689939   1.124023  43.284350 -10.654725 -37.488447 -179.999247 -78.752490 -179.999253  -3.832369  -9.500170  -9.791060 -22.569968  -4.551745 -15.273722  16.645958   0.000157  -0.000825  -6.049644  -6.829654   5.897505   0.369242  -0.000317  -0.000585 -17.623233   6.274445   0.145809  18.691919  -0.000039  -0.000151 -10.270752   8.336995   0.116457  -2.519974  -0.001307  -0.000036
 -2.387905   0.907201   3.995443  12.665137  -1.470185   4.323593  10.828989  -0.745341  -1.174394   3.667226   1.259964   0.994894  -1.119063  -0.019422  -0.308019   5.677225 -16.051443   2.252382  34.233942   4.340850  41.988546 -179.999907  79.642355 -179.999761  -6.434152   8.753242   7.632929   7.037317  12.739409   1.243341  43.188124 -10.597341 -37.475429 -179.999007 -78.684937 -179.999064  -3.815935  -9.502182  -9.808749 -22.393156  -4.597365 -15.122913  16.232801   0.000128  -0.000935  -5.832942  -6.902118   5.937573   0.323712  -0.000236  -0.000469 -17.655919   6.188872   0.451937  18.487860   0.000317  -0.000170 -10.260362   8.331162   0.163670  -2.180157  -0.001697  -0.000085
 -2.387824   0.907409   3.995692  12.725434  -1.455899   4.203244  10.711938  -0.734018  -1.304025   3.594562   1.264625   0.945895  -1.145240  -0.046471  -0.238428   5.720206 -16.096711   2.202111  34.297572   4.369958  42.114859 179.999383  79.718140 -179.999042  -6.442752   8.736109   7.629706   7.021926  12.787456   1.359977  43.098241 -10.540562 -37.461523 -179.998889 -78.621985 -179.998986  -3.800238  -9.504726  -9.809750 -22.221049  -4.641575 -14.983869  15.832603   0.000081  -0.000989  -5.628347  -6.968891   5.974091   0.287748  -0.000178  -0.000376 -17.685025   6.105257   0.763681  18.292768   0.000602  -0.000183 -10.251062   8.326041   0.208073  -1.869393  -0.001974  -0.000116
